# xmcd
#
# Track frame offsets: 
#        180
#        14779
#        33161
#        44068
#        58140
#        75280
#        85553
#        101067
#        113835
#        128019
#        142904
#        152785
#        166961
#
# Disc length: 2443 seconds
#
# Revision: 0
# Processed by: cddbd v1.5.1PL0 Copyright (c) Steve Scherf et al.
# Submitted via: ExactAudioCopy v0.95a5
#
DISCID=a009890d
DTITLE=Monti Amundson and the Bluebinos - Unglued
DYEAR=1995
DGENRE=Blues
TTITLE0=Lesson Or Two
TTITLE1=Oh Jonny Why
TTITLE2=Looking Back
TTITLE3=I See Trouble
TTITLE4=King Bee
TTITLE5=You Win I Lose
TTITLE6=Broke Down Car
TTITLE7=Continental Breakfast
TTITLE8=Female Dictionary
TTITLE9=I'm Good
TTITLE10=Worried About My Baby
TTITLE11=Drinkin' Woman Blues
TTITLE12=I Live A Good Life
EXTD=
EXTT0=
EXTT1=
EXTT2=
EXTT3=
EXTT4=
EXTT5=
EXTT6=
EXTT7=
EXTT8=
EXTT9=
EXTT10=
EXTT11=
EXTT12=
PLAYORDER=
